<svg xmlns="http://www.w3.org/2000/svg" width="32" height="36" viewBox="0 0 32 36">
    <path fill="#FFF" fill-rule="evenodd" d="M25.055 2.318c7.412 4.334 9.138 14.052 3.98 23.884-4.532 8.644-14.43 12.335-21.804 7.935-7.377-4.401-8.816-16.679-5.646-23.744C6.187.134 16.865-2.472 25.055 2.318zm-9.518 26.08a1.76 1.76 0 0 0-.735-.358 1.367 1.367 0 0 0-.264-.027c-.483 0-.955.273-1.264.73a1.78 1.78 0 0 0-.296 1.275c.044.28.146.524.297.705.17.206.43.363.752.457.187.053.378.08.569.08.416 0 .79-.127 1.081-.37.338-.282.522-.685.518-1.134a1.772 1.772 0 0 0-.658-1.359zm9.37-18.152l-.02-.021c-2.788-3.232-6.659-3.436-9.11-3.372-2.71.07-4.656.988-6.247 1.84-1.389.743-2.642 2.02-3.15 2.656-.323.404-.874 1.24-.58 1.989.245.621 1.157.58 1.501.315.344-.266.707-.67 1.178-1.07 2.092-1.776 3.947-2.894 8.267-2.894 4.32 0 6.663 2.765 6.663 5.234 0 2.468-1.137 4.144-3.285 5.237-1.064.543-2.2.96-3.63 1.018.103-2.393.156-4.657.156-4.657.03-1.723.315-3.124-.809-3.356-1.121-.232-3.188-.003-3.226 1.31-.05-.194.213 10.768.26 10.985l.02.251c.022.279.118.524.287.718a1.12 1.12 0 0 0 .808.35c.234 0 .565-.042.899-.14.42-.123.844-.333 1.088-.66a1.33 1.33 0 0 0 .278-.623c.037-.202.108-1.475.127-1.845 2.272-.02 4.58-.459 6.339-1.556 2.216-1.385 3.548-3.472 3.837-5.728.252-1.979-.2-4.391-1.65-5.981z"/>
</svg>
